# Blender 4.4.0
# www.blender.org
mtllib gem_trillion.mtl
o Trillion
v 7.991652 -0.358022 -0.053908
v 8.521181 0.030435 -0.092826
v 7.554628 0.028954 -0.196926
v 8.216437 0.123662 0.095138
v 8.127375 0.099048 0.364837
v 8.128340 -0.358022 -0.025008
v 7.700166 0.031726 0.202931
v 8.111653 -0.358022 -0.053908
v 8.490999 0.025819 0.005882
v 8.451202 0.026017 0.106672
v 8.405473 0.099048 -0.116842
v 8.051653 0.123662 0.279925
v 8.051653 0.032580 0.594138
v 8.294075 0.123662 -0.139962
v 7.975931 0.099048 0.364838
v 8.548677 0.004316 -0.196926
v 7.973683 0.028954 0.528899
v 8.051653 -0.412861 -0.000000
v 8.521181 0.000000 -0.092827
v 8.566191 0.000000 -0.297069
v 7.700166 0.000000 0.202931
v 8.403140 0.000000 0.202931
v 8.548677 0.028954 -0.196925
v 7.897279 0.030435 0.453036
v 8.329750 0.099048 -0.247996
v 8.051653 0.123662 -0.190277
v 8.051653 0.031726 -0.405862
v 8.051653 0.000000 -0.405862
v 7.736499 0.030435 -0.360210
v 7.697834 0.099048 -0.116842
v 7.773555 0.099048 -0.247996
v 7.897279 0.000000 0.453036
v 7.886868 0.123662 0.095138
v 7.736499 0.000000 -0.360210
v 7.632598 0.028954 -0.331973
v 7.632598 0.004316 -0.331973
v 7.837074 0.025819 -0.383426
v 7.944259 0.026017 -0.399356
v 7.837074 0.009018 -0.383426
v 7.944259 0.009445 -0.399356
v 7.973683 0.004316 0.528899
v 8.366807 0.030435 -0.360210
v 8.470708 0.028954 -0.331973
v 8.566192 0.032580 -0.297069
v 8.403140 0.031726 0.202931
v 7.759498 0.026017 0.292684
v 8.129622 0.028954 0.528899
v 7.826886 0.025819 0.377544
v 8.343808 0.026017 0.292684
v 7.809231 0.123662 -0.139962
v 8.068338 -0.358022 0.078916
v 8.034967 -0.358022 0.078916
v 8.366807 0.000000 -0.360210
v 8.470708 0.004316 -0.331973
v 8.266232 0.025819 -0.383426
v 8.159047 0.026017 -0.399356
v 8.266232 0.009018 -0.383426
v 8.159047 0.009445 -0.399356
v 8.490999 0.009018 0.005882
v 8.451202 0.009445 0.106672
v 8.051652 0.000000 0.594138
v 8.206026 0.030435 0.453036
v 8.206026 0.000000 0.453037
v 8.129622 0.004316 0.528899
v 8.276420 0.025819 0.377544
v 7.537115 0.032580 -0.297069
v 8.276420 0.009018 0.377544
v 8.343808 0.009445 0.292684
v 7.652103 0.026017 0.106672
v 7.974967 -0.358022 -0.025008
v 7.826886 0.009018 0.377544
v 7.759497 0.009445 0.292684
v 7.537115 0.000000 -0.297069
v 7.582125 0.030435 -0.092827
v 7.582125 0.000000 -0.092827
v 7.554628 0.004316 -0.196926
v 7.612307 0.025819 0.005882
v 7.612307 0.009018 0.005882
v 7.652103 0.009445 0.106672
vn -0.0000 -0.7010 -0.7131
vn -0.0000 0.9605 0.2784
vn 0.8947 -0.0000 0.4467
vn 0.3964 0.8617 0.3168
vn 0.1588 0.9771 0.1416
vn 0.3454 0.8647 0.3647
vn 0.4726 0.8617 0.1848
vn 0.3397 0.9199 0.1961
vn -0.3964 0.8617 0.3168
vn 0.6737 -0.6883 0.2689
vn -0.0000 -0.8212 0.5706
vn -0.3397 0.9199 0.1961
vn 0.4698 -0.7177 0.5140
vn 0.9668 -0.0000 0.2554
vn 0.6176 -0.7010 0.3566
vn -0.1588 0.9771 0.1416
vn -0.3454 0.8647 0.3647
vn 0.2020 0.9771 0.0667
vn -0.1432 0.8647 -0.4814
vn -0.0432 0.9771 -0.2083
vn 0.4885 0.8647 0.1167
vn -0.0000 1.0000 -0.0000
vn -0.2623 -0.0000 -0.9650
vn 0.2102 -0.7177 -0.6638
vn 0.4942 -0.8212 -0.2853
vn -0.1040 -0.6883 -0.7179
vn -0.0605 -0.0000 -0.9982
vn -0.3433 -0.0000 -0.9392
vn -0.2249 -0.0000 -0.9744
vn -0.1470 -0.0000 -0.9891
vn -0.0000 0.9199 -0.3923
vn -0.0762 0.8617 -0.5017
vn -0.2411 0.9605 -0.1392
vn 0.1432 0.8647 -0.4814
vn 0.0432 0.9771 -0.2083
vn 0.0762 0.8617 -0.5017
vn 0.2411 0.9605 -0.1392
vn 0.1470 -0.0000 -0.9891
vn 0.2249 -0.0000 -0.9744
vn 0.3433 -0.0000 -0.9392
vn 0.0605 -0.0000 -0.9982
vn 0.1040 -0.6883 -0.7179
vn -0.4885 0.8647 0.1167
vn -0.2020 0.9771 0.0667
vn -0.4726 0.8617 0.1848
vn -0.4942 -0.8212 -0.2853
vn 0.2623 -0.0000 -0.9650
vn -0.2102 -0.7177 -0.6638
vn 0.9850 -0.0000 0.1723
vn 0.9563 -0.0000 0.2924
vn 0.9301 -0.0000 0.3673
vn 0.7831 -0.0000 0.6219
vn 0.7314 -0.0000 0.6820
vn 0.6417 -0.0000 0.7669
vn 0.8342 -0.0000 0.5515
vn 0.5697 -0.6883 0.4490
vn 0.7046 -0.0000 0.7096
vn 0.6800 -0.7177 0.1499
vn -0.8342 -0.0000 0.5515
vn -0.5697 -0.6883 0.4490
vn -0.6800 -0.7177 0.1499
vn -0.7046 -0.0000 0.7096
vn -0.6176 -0.7010 0.3566
vn -0.6417 -0.0000 0.7669
vn -0.7314 -0.0000 0.6820
vn -0.7831 -0.0000 0.6219
vn -0.9301 -0.0000 0.3673
vn -0.9563 -0.0000 0.2924
vn -0.9851 -0.0000 0.1723
vn -0.8947 -0.0000 0.4467
vn -0.6737 -0.6883 0.2689
vn -0.9668 -0.0000 0.2554
vn -0.4698 -0.7177 0.5140
s 0
usemtl Diamond
f 18//1 1//1 28//1 8//1
f 15//2 13//2 5//2 12//2
f 60//3 10//3 45//3 22//3
f 5//4 62//4 65//4 49//4 45//4
f 5//5 4//5 12//5
f 47//6 62//6 5//6 13//6
f 11//7 45//7 10//7 9//7 2//7
f 11//8 4//8 5//8 45//8
f 15//9 7//9 46//9 48//9 24//9
f 19//10 59//10 60//10 22//10 6//10
f 61//11 52//11 18//11 51//11
f 15//12 33//12 30//12 7//12
f 61//13 51//13 63//13 64//13
f 16//14 23//14 2//14 19//14
f 18//15 6//15 22//15 51//15
f 15//16 12//16 33//16
f 17//17 13//17 15//17 24//17
f 11//18 14//18 4//18
f 35//19 66//19 31//19 29//19
f 31//20 50//20 26//20
f 23//21 44//21 11//21 2//21
f 33//22 12//22 4//22 14//22 26//22 50//22
f 36//23 35//23 29//23 34//23
f 20//24 8//24 53//24 54//24
f 20//25 6//25 18//25 8//25
f 34//26 39//26 40//26 28//26 1//26
f 40//27 38//27 27//27 28//27
f 73//28 66//28 35//28 36//28
f 34//29 29//29 37//29 39//29
f 39//30 37//30 38//30 40//30
f 31//31 26//31 25//31 27//31
f 31//32 27//32 38//32 37//32 29//32
f 30//33 50//33 31//33 66//33
f 43//34 42//34 25//34 44//34
f 25//35 26//35 14//35
f 25//36 42//36 55//36 56//36 27//36
f 11//37 44//37 25//37 14//37
f 57//38 58//38 56//38 55//38
f 53//39 57//39 55//39 42//39
f 20//40 54//40 43//40 44//40
f 58//41 28//41 27//41 56//41
f 53//42 8//42 28//42 58//42 57//42
f 3//43 74//43 30//43 66//43
f 30//44 33//44 50//44
f 30//45 74//45 77//45 69//45 7//45
f 73//46 1//46 18//46 70//46
f 54//47 53//47 42//47 43//47
f 73//48 36//48 34//48 1//48
f 20//49 44//49 23//49 16//49
f 19//50 2//50 9//50 59//50
f 59//51 9//51 10//51 60//51
f 67//52 68//52 49//52 65//52
f 63//53 67//53 65//53 62//53
f 61//54 64//54 47//54 13//54
f 68//55 22//55 45//55 49//55
f 63//56 51//56 22//56 68//56 67//56
f 64//57 63//57 62//57 47//57
f 20//58 16//58 19//58 6//58
f 72//59 46//59 7//59 21//59
f 32//60 71//60 72//60 21//60 52//60
f 73//61 70//61 75//61 76//61
f 41//62 17//62 24//62 32//62
f 18//63 52//63 21//63 70//63
f 61//64 13//64 17//64 41//64
f 32//65 24//65 48//65 71//65
f 71//66 48//66 46//66 72//66
f 78//67 79//67 69//67 77//67
f 75//68 78//68 77//68 74//68
f 73//69 76//69 3//69 66//69
f 79//70 21//70 7//70 69//70
f 75//71 70//71 21//71 79//71 78//71
f 76//72 75//72 74//72 3//72
f 61//73 41//73 32//73 52//73
