# Blender 4.4.0
# www.blender.org
mtllib gem_princess.mtl
o Cushion
v 2.648976 0.168323 0.285000
v 2.858528 0.119088 0.362400
v 2.846623 -0.036082 0.477164
v 2.908063 -0.102801 0.435990
v 2.747285 -0.008419 0.494236
v 2.648976 0.000922 0.500000
v 2.550976 -0.207302 0.371500
v 2.382508 -0.066197 0.458579
v 2.648976 0.031560 0.500000
v 2.747285 0.027242 0.494236
v 2.846623 0.031560 0.477164
v 2.915443 -0.066197 0.458579
v 2.949282 0.019326 0.449441
v 2.949282 -0.036027 0.449441
v 3.107555 -0.066197 0.266467
v 3.011376 0.119088 0.209552
v 3.126139 0.031560 0.197648
v 2.873874 0.168323 0.224898
v 2.933976 0.168323 -0.000000
v 3.148976 0.000922 -0.000000
v 2.980476 -0.141979 0.331500
v 3.098417 -0.036027 0.300307
v 3.043534 0.012057 0.394558
v 3.084966 -0.102801 0.259087
v 3.043534 0.031560 0.394558
v 3.098417 0.019326 0.300307
v 3.143211 -0.008419 0.098310
v 3.143211 0.027242 0.098310
v 3.126139 -0.036082 0.197648
v 2.746976 -0.207302 0.371500
v 2.723976 -0.475768 -0.000000
v 2.998990 -0.242117 -0.000000
v 3.020476 -0.207302 0.098000
v 2.846623 -0.036082 -0.477164
v 2.915443 -0.066197 -0.458579
v 2.648976 0.000922 -0.500000
v 2.550976 -0.207302 -0.371500
v 2.550666 -0.008419 -0.494236
v 2.451328 -0.036082 -0.477164
v 2.277476 -0.207302 -0.098000
v 2.190396 -0.066197 0.266467
v 2.148976 0.000922 0.000000
v 2.286576 0.119088 -0.209552
v 2.363976 0.168323 0.000000
v 2.648976 0.031560 -0.500000
v 2.858528 0.119088 -0.362400
v 2.873874 0.168323 -0.224898
v 3.011376 0.119088 -0.209552
v 3.098417 0.019326 -0.300307
v 3.126139 0.031560 -0.197648
v 3.148976 0.031560 -0.000000
v 3.143211 -0.008419 -0.098310
v 3.143211 0.027242 -0.098310
v 3.126139 -0.036082 -0.197648
v 3.107555 -0.066197 -0.266467
v 3.098417 -0.036027 -0.300307
v 3.043534 0.012057 -0.394558
v 2.846623 0.031560 -0.477164
v 2.949282 0.019326 -0.449441
v 3.043534 0.031560 -0.394558
v 3.084966 -0.102801 -0.259087
v 2.949282 -0.036027 -0.449441
v 2.908063 -0.102801 -0.435990
v 2.747285 -0.008419 -0.494236
v 2.747285 0.027242 -0.494236
v 3.020476 -0.207302 -0.098000
v 2.648976 -0.518343 0.000000
v 2.648976 -0.475768 -0.075000
v 2.980476 -0.141979 -0.331500
v 2.746976 -0.207302 -0.371500
v 2.424077 0.168323 -0.224898
v 2.648976 0.168323 -0.285000
v 2.439424 0.119088 -0.362400
v 2.550666 0.027242 -0.494236
v 2.451328 0.031560 -0.477164
v 2.382508 -0.066197 -0.458579
v 2.348669 0.019326 -0.449441
v 2.254417 0.012057 -0.394558
v 2.199535 -0.036027 -0.300307
v 2.171812 0.031560 -0.197648
v 2.199535 0.019326 -0.300307
v 2.254417 0.031560 -0.394558
v 2.148976 0.031560 0.000000
v 2.190396 -0.066197 -0.266467
v 2.212985 -0.102801 -0.259087
v 2.348669 -0.036027 -0.449441
v 2.154740 -0.008419 -0.098310
v 2.154740 0.027242 -0.098310
v 2.171812 -0.036082 -0.197648
v 2.648976 -0.242117 -0.350015
v 2.389889 -0.102801 -0.435990
v 2.317476 -0.141979 -0.331500
v 2.573976 -0.475768 0.000000
v 2.286576 0.119088 0.209552
v 2.171812 0.031560 0.197648
v 2.154740 0.027242 0.098310
v 2.154740 -0.008419 0.098310
v 2.171812 -0.036082 0.197648
v 2.199535 0.019326 0.300307
v 2.348669 0.019326 0.449441
v 2.424077 0.168323 0.224898
v 2.439424 0.119088 0.362400
v 2.451328 0.031560 0.477164
v 2.254417 0.012057 0.394558
v 2.199535 -0.036027 0.300307
v 2.254417 0.031560 0.394558
v 2.348669 -0.036027 0.449441
v 2.550666 -0.008419 0.494236
v 2.451328 -0.036082 0.477164
v 2.550666 0.027242 0.494236
v 2.277476 -0.207302 0.098000
v 2.298961 -0.242117 0.000000
v 2.212985 -0.102801 0.259087
v 2.317476 -0.141979 0.331500
v 2.648976 -0.475768 0.075000
v 2.389889 -0.102801 0.435990
v 2.648976 -0.242117 0.350015
vn 0.5032 -0.0000 -0.8642
vn -0.8642 -0.0000 -0.5032
vn -0.8642 -0.0000 0.5032
vn -0.0000 1.0000 -0.0000
vn 0.2607 -0.0000 0.9654
vn 0.0704 0.7896 0.6095
vn -0.3502 0.8688 0.3502
vn 0.3573 -0.7658 0.5347
vn -0.0000 -0.5252 0.8510
vn 0.6032 -0.7574 0.2499
vn 0.9983 -0.0000 0.0585
vn -0.5032 -0.0000 0.8642
vn 0.9654 -0.0000 0.2607
vn 0.0585 -0.0000 0.9983
vn -0.3448 0.9342 0.0921
vn 0.6032 -0.7574 -0.2499
vn -0.0921 0.9342 0.3448
vn 0.8510 -0.5252 -0.0000
vn -0.6120 -0.5010 0.6120
vn 0.6095 0.7896 -0.0704
vn -0.1277 -0.7558 -0.6422
vn -0.9983 -0.0000 -0.0585
vn 0.8642 -0.0000 0.5032
vn 0.1277 -0.7558 0.6422
vn 0.6095 0.7896 0.0704
vn 0.4427 -0.7798 0.4427
vn 0.5347 -0.7658 -0.3573
vn 0.6422 -0.7558 0.1277
vn -0.0000 -0.5252 -0.8510
vn -0.5347 -0.7658 0.3573
vn -0.8510 -0.5252 -0.0000
vn -0.4427 -0.7798 -0.4427
vn 0.5367 0.8438 -0.0000
vn -0.0000 0.8438 -0.5367
vn 0.4427 -0.7798 -0.4427
vn 0.5032 -0.0000 0.8642
vn -0.6032 -0.7574 0.2499
vn 0.6032 0.7564 0.2530
vn -0.0704 0.7896 -0.6095
vn -0.6095 0.7896 0.0704
vn -0.0585 -0.0000 -0.9983
vn 0.9654 -0.0000 -0.2607
vn -0.1694 -0.0000 -0.9856
vn -0.5032 -0.0000 -0.8642
vn 0.1694 -0.0000 0.9856
vn 0.2607 -0.0000 -0.9654
vn -0.2499 -0.7574 0.6032
vn 0.2530 0.7564 -0.6032
vn -0.0704 0.7896 0.6095
vn -0.9856 -0.0000 -0.1694
vn 0.9983 -0.0000 -0.0585
vn -0.2499 -0.7574 -0.6032
vn -0.6120 -0.5010 -0.6120
vn -0.9856 -0.0000 0.1694
vn 0.2499 -0.7574 -0.6032
vn -0.5347 -0.7658 -0.3573
vn 0.0921 0.9342 0.3448
vn -0.6032 -0.7574 -0.2499
vn -0.4427 -0.7798 0.4427
vn -0.1277 -0.7558 0.6422
vn -0.3573 -0.7658 0.5347
vn 0.3502 0.8688 0.3502
vn -0.6422 -0.7558 0.1277
vn 0.3448 0.9342 -0.0921
vn -0.3502 0.8688 -0.3502
vn -0.2607 -0.0000 -0.9654
vn -0.9654 -0.0000 -0.2607
vn -0.6032 0.7564 -0.2530
vn 0.0921 0.9342 -0.3448
vn -0.3573 -0.7658 -0.5347
vn 0.0704 0.7896 -0.6095
vn 0.6120 -0.5010 0.6120
vn -0.9983 -0.0000 0.0585
vn -0.1694 -0.0000 0.9856
vn 0.9856 -0.0000 0.1694
vn 0.6422 -0.7558 -0.1277
vn 0.2530 0.7564 0.6032
vn -0.5367 0.8438 -0.0000
vn -0.6032 0.7564 0.2530
vn 0.9856 -0.0000 -0.1694
vn -0.6422 -0.7558 -0.1277
vn 0.3502 0.8688 -0.3502
vn -0.0921 0.9342 -0.3448
vn 0.6032 0.7564 -0.2530
vn -0.6095 0.7896 -0.0704
vn -0.0585 -0.0000 0.9983
vn -0.9654 -0.0000 0.2607
vn -0.2607 -0.0000 0.9654
vn 0.2499 -0.7574 0.6032
vn 0.1277 -0.7558 -0.6422
vn -0.2530 0.7564 0.6032
vn -0.3448 0.9342 -0.0921
vn 0.3573 -0.7658 -0.5347
vn 0.6120 -0.5010 -0.6120
vn 0.8642 -0.0000 -0.5032
vn 0.0585 -0.0000 -0.9983
vn 0.1694 -0.0000 -0.9856
vn 0.5347 -0.7658 0.3573
vn -0.2530 0.7564 -0.6032
vn 0.3448 0.9342 0.0921
vn -0.0000 0.8438 0.5367
s 0
usemtl Diamond
f 57//1 62//1 59//1 60//1
f 78//2 79//2 81//2 82//2
f 106//3 99//3 105//3 104//3
f 72//4 71//4 44//4 101//4 1//4 18//4 19//4 47//4
f 13//5 11//5 3//5 12//5 14//5
f 10//6 11//6 2//6 9//6
f 101//7 94//7 106//7 102//7
f 115//8 21//8 4//8
f 117//9 30//9 4//9 12//9 3//9 5//9 6//9 108//9 109//9 8//9 116//9 7//9
f 31//10 33//10 24//10
f 27//11 20//11 51//11 28//11
f 104//12 107//12 100//12 106//12
f 17//13 26//13 22//13 15//13 29//13
f 10//14 9//14 6//14 5//14
f 101//15 44//15 94//15
f 31//16 61//16 66//16
f 102//17 1//17 101//17
f 24//18 33//18 32//18 66//18 61//18 55//18 54//18 52//18 20//18 27//18 29//18 15//18
f 113//19 114//19 116//19 8//19 107//19 104//19 105//19 41//19
f 53//20 50//20 48//20 51//20
f 90//21 68//21 37//21
f 87//22 42//22 83//22 88//22
f 22//23 26//23 25//23 23//23
f 30//24 117//24 115//24
f 28//25 51//25 16//25 17//25
f 21//26 115//26 67//26 31//26
f 31//27 69//27 61//27
f 33//28 31//28 32//28
f 70//29 90//29 37//29 91//29 76//29 39//29 38//29 36//29 64//29 34//29 35//29 63//29
f 93//30 114//30 113//30
f 89//31 84//31 85//31 40//31 112//31 111//31 113//31 41//31 98//31 97//31 42//31 87//31
f 68//32 67//32 93//32 92//32
f 51//33 48//33 19//33 16//33
f 72//34 46//34 45//34 73//34
f 69//35 31//35 67//35 68//35
f 25//36 13//36 14//36 23//36
f 93//37 113//37 111//37
f 25//38 26//38 17//38 16//38
f 74//39 75//39 73//39 45//39
f 96//40 95//40 94//40 83//40
f 74//41 45//41 36//41 38//41
f 49//42 50//42 54//42 55//42 56//42
f 75//43 74//43 38//43 39//43
f 82//44 77//44 86//44 78//44
f 11//45 10//45 5//45 3//45
f 58//46 59//46 62//46 35//46 34//46
f 116//47 115//47 7//47
f 59//48 58//48 46//48 60//48
f 103//49 110//49 9//49 102//49
f 87//50 88//50 80//50 89//50
f 53//51 51//51 20//51 52//51
f 37//52 68//52 91//52
f 91//53 92//53 85//53 84//53 79//53 78//53 86//53 76//53
f 95//54 96//54 97//54 98//54
f 68//55 70//55 63//55
f 85//56 92//56 93//56
f 2//57 18//57 1//57
f 85//58 93//58 40//58
f 114//59 93//59 67//59 115//59
f 7//60 115//60 117//60
f 116//61 114//61 115//61
f 16//62 18//62 2//62 25//62
f 93//63 111//63 112//63
f 47//64 19//64 48//64
f 71//65 73//65 82//65 43//65
f 75//66 39//66 76//66 86//66 77//66
f 80//67 81//67 79//67 84//67 89//67
f 81//68 80//68 43//68 82//68
f 72//69 47//69 46//69
f 68//70 92//70 91//70
f 58//71 65//71 45//71 46//71
f 14//72 12//72 4//72 21//72 24//72 15//72 22//72 23//72
f 96//73 83//73 42//73 97//73
f 110//74 103//74 109//74 108//74
f 29//75 27//75 28//75 17//75
f 32//76 31//76 66//76
f 25//77 2//77 11//77 13//77
f 44//78 43//78 83//78 94//78
f 106//79 94//79 95//79 99//79
f 50//80 53//80 52//80 54//80
f 40//81 93//81 112//81
f 47//82 48//82 60//82 46//82
f 71//83 72//83 73//83
f 48//84 50//84 49//84 60//84
f 80//85 88//85 83//85 43//85
f 6//86 9//86 110//86 108//86
f 99//87 95//87 98//87 41//87 105//87
f 103//88 100//88 107//88 8//88 109//88
f 30//89 115//89 4//89
f 70//90 68//90 90//90
f 100//91 103//91 102//91 106//91
f 44//92 71//92 43//92
f 68//93 63//93 69//93
f 61//94 69//94 63//94 35//94 62//94 57//94 56//94 55//94
f 60//95 49//95 56//95 57//95
f 64//96 36//96 45//96 65//96
f 58//97 34//97 64//97 65//97
f 31//98 24//98 21//98
f 82//99 73//99 75//99 77//99
f 16//100 19//100 18//100
f 1//101 102//101 9//101 2//101
