# Blender 4.4.0
# www.blender.org
mtllib gem_heart.mtl
o Heart
v 6.101072 0.146072 -0.163925
v 6.390863 0.146072 -0.231906
v 6.077451 0.146072 0.014815
v 6.247650 0.146072 0.279212
v 6.534077 0.146072 0.279212
v 6.390863 0.146072 0.385732
v 6.704276 0.146072 0.014815
v 6.665829 0.121186 0.185082
v 5.977111 0.028006 -0.295764
v 6.390863 0.028006 0.580025
v 6.438950 0.121186 0.426685
v 6.793376 0.121186 -0.110296
v 6.680655 0.146072 -0.163925
v 6.141794 0.025505 -0.369211
v 6.245549 0.037571 -0.358060
v 6.090226 0.022654 -0.359818
v 5.896300 0.020846 -0.150906
v 5.931208 0.012668 -0.238618
v 5.944025 0.015225 -0.258424
v 5.988351 0.121186 -0.110296
v 6.115898 0.121186 0.185082
v 6.138338 0.028006 0.381862
v 6.018435 0.028006 0.228065
v 6.074854 0.023966 0.307717
v 6.342777 0.121186 0.426685
v 6.172564 0.024939 0.416673
v 6.245623 0.024939 0.481403
v 6.208350 0.023916 0.449877
v 6.324308 0.026380 0.539164
v 6.457418 0.026380 0.539164
v 6.435569 0.026344 0.553326
v 6.643389 0.028006 0.381862
v 6.497424 0.028006 0.511186
v 6.536104 0.024939 0.481403
v 6.763292 0.028006 0.228065
v 6.833655 0.026397 0.099739
v 6.812173 0.024968 0.143576
v 6.844537 0.028006 0.075381
v 6.889163 0.028006 -0.127499
v 6.873474 0.015320 0.000778
v 6.879683 0.015661 -0.173903
v 6.691501 0.022654 -0.359818
v 6.716376 0.019423 -0.351471
v 6.784662 0.022654 -0.312802
v 6.511498 0.045967 -0.349151
v 6.633037 0.121186 -0.261053
v 6.587520 0.027149 -0.368617
v 6.613712 0.025218 -0.370169
v 6.639933 0.025505 -0.369211
v 6.148690 0.121186 -0.261053
v 6.270228 0.045967 -0.349151
v 6.357184 0.095223 -0.291461
v 6.424543 0.095223 -0.291461
v 6.390863 0.129515 -0.251297
v 6.406741 0.111680 -0.272186
v 6.406741 -0.153011 -0.272186
v 6.444106 0.080294 -0.308946
v 6.465250 0.067030 -0.324481
v 6.487784 0.055553 -0.337924
v 6.511498 -0.049725 -0.349151
v 6.536178 0.037571 -0.358060
v 6.561596 0.031279 -0.364568
v 6.587520 -0.013291 -0.368617
v 6.613712 -0.006195 -0.370169
v 6.665942 0.028006 -0.365750
v 6.665942 0.000000 -0.365750
v 6.740339 0.018343 -0.340784
v 6.763171 0.009443 -0.327855
v 6.740339 0.010632 -0.340784
v 6.763171 0.019423 -0.327855
v 6.784662 0.005888 -0.312802
v 6.804615 0.000000 -0.295764
v 6.804615 0.028006 -0.295764
v 6.822849 0.020196 -0.276897
v 6.837702 0.015225 -0.258424
v 6.822849 0.006451 -0.276897
v 6.871792 0.012668 -0.196281
v 6.885427 0.020846 -0.150906
v 6.885427 0.005914 -0.150906
v 6.889163 0.000000 -0.127499
v 6.890863 0.006054 -0.103856
v 6.890863 0.021017 -0.103856
v 6.890327 0.015620 -0.077193
v 6.873474 0.010988 0.000778
v 6.854805 0.023092 0.050758
v 6.864453 0.018862 0.025885
v 6.833655 0.001719 0.099739
v 6.788702 0.002670 0.186381
v 6.788702 0.025505 0.186381
v 6.735996 0.003163 0.268539
v 6.735996 0.024977 0.268539
v 6.675982 0.024977 0.345518
v 6.706872 0.023966 0.307717
v 6.706872 0.004218 0.307717
v 6.675982 0.003163 0.345518
v 6.609163 0.024939 0.416673
v 6.573377 0.023916 0.449877
v 6.497424 0.000000 0.511186
v 6.457418 0.001517 0.539164
v 6.435569 0.001551 0.553326
v 6.413380 0.026886 0.566949
v 6.413380 0.001045 0.566949
v 6.390863 0.000000 0.580025
v 6.368347 0.026886 0.566949
v 6.368347 0.001045 0.566949
v 6.346158 0.001551 0.553326
v 6.346158 0.026344 0.553326
v 6.284303 0.028006 0.511186
v 6.284303 0.000000 0.511186
v 6.245623 0.003034 0.481403
v 6.208350 0.004046 0.449877
v 6.172564 0.003034 0.416673
v 6.105745 0.024977 0.345518
v 6.045731 0.024977 0.268539
v 6.045731 0.003163 0.268539
v 6.018435 0.000000 0.228065
v 5.993025 0.025505 0.186381
v 5.993025 0.002670 0.186381
v 5.969554 0.024968 0.143576
v 5.937190 0.028006 0.075381
v 5.937190 0.000000 0.075381
v 5.948072 0.026397 0.099739
v 5.926921 0.023092 0.050758
v 5.917274 0.007920 0.025885
v 5.917274 0.018862 0.025885
v 5.908253 0.015320 0.000778
v 5.900363 0.012998 -0.024675
v 5.891399 0.015620 -0.077193
v 5.891399 0.010728 -0.077193
v 5.890863 0.021017 -0.103856
v 5.890863 0.006054 -0.103856
v 5.892564 0.028006 -0.127499
v 5.902044 0.015661 -0.173903
v 5.909935 0.012668 -0.196281
v 5.958878 0.020196 -0.276897
v 5.958878 0.006451 -0.276897
v 5.997065 0.022654 -0.312802
v 6.018556 0.019423 -0.327855
v 6.018556 0.009443 -0.327855
v 6.041388 0.018343 -0.340784
v 6.041388 0.010632 -0.340784
v 6.065351 0.009443 -0.351471
v 6.065351 0.019423 -0.351471
v 6.115785 0.028006 -0.365750
v 6.168015 0.025218 -0.370169
v 6.141794 -0.001751 -0.369211
v 6.168015 -0.006195 -0.370169
v 6.194207 0.027149 -0.368617
v 6.194207 -0.013291 -0.368617
v 6.220130 0.031279 -0.364568
v 6.270228 -0.049725 -0.349151
v 6.245549 -0.035156 -0.358060
v 6.316476 0.067030 -0.324481
v 6.293943 0.055553 -0.337924
v 6.293943 -0.066547 -0.337924
v 6.316476 -0.085469 -0.324481
v 6.357184 -0.128900 -0.291461
v 6.337621 0.080294 -0.308946
v 6.374986 0.111680 -0.272186
v 6.115785 0.000000 -0.365750
v 6.220130 -0.022974 -0.364568
v 6.337621 -0.106317 -0.308946
v 6.374986 -0.153011 -0.272186
v 6.390863 -0.178430 -0.251297
v 5.997065 0.005888 -0.312802
v 6.090226 0.005888 -0.359818
v 5.892564 0.000000 -0.127499
v 5.896300 0.005914 -0.150906
v 5.902044 0.010197 -0.173903
v 5.944025 0.010557 -0.258424
v 6.309753 -0.345917 -0.023617
v 5.894635 0.012999 -0.050718
v 5.926921 0.004256 0.050758
v 5.908253 0.010988 0.000778
v 5.969554 0.003243 0.143576
v 5.948072 0.001719 0.099739
v 6.319973 -0.329413 0.045938
v 6.105745 0.003163 0.345518
v 6.074854 0.004218 0.307717
v 6.324308 0.001517 0.539164
v 6.609163 0.003034 0.416673
v 6.573377 0.004046 0.449877
v 6.536104 0.003034 0.481403
v 6.643389 0.000000 0.381862
v 6.763292 0.000000 0.228065
v 6.812173 0.003243 0.143576
v 6.887092 0.012998 -0.050718
v 6.881363 0.012999 -0.024675
v 6.890327 0.010728 -0.077193
v 6.864453 0.007920 0.025885
v 6.854805 0.004256 0.050758
v 6.844537 0.000000 0.075381
v 6.850519 0.012668 -0.238618
v 6.837702 0.010557 -0.258424
v 6.879683 0.010197 -0.173903
v 6.691501 0.005888 -0.359818
v 6.716376 0.009443 -0.351471
v 6.424543 -0.128900 -0.291461
v 6.444106 -0.106317 -0.308946
v 6.465250 -0.085469 -0.324481
v 6.487784 -0.066547 -0.337924
v 6.536178 -0.035156 -0.358060
v 6.561596 -0.022974 -0.364568
v 6.639933 -0.001751 -0.369211
v 5.977111 0.000000 -0.295764
v 6.390863 -0.355023 -0.084484
v 6.138338 0.000000 0.381862
v 6.390863 -0.404979 0.000000
v 6.390863 -0.352412 0.084471
v 6.461754 -0.329413 0.045938
v 6.471974 -0.345917 -0.023617
vn -0.1543 -0.0000 -0.9880
vn 0.5123 -0.0000 -0.8588
vn 0.2481 -0.0000 -0.9687
vn -0.9323 -0.0000 0.3616
vn 0.7743 -0.0000 0.6328
vn 0.5022 -0.0000 0.8648
vn -0.0651 0.9585 -0.2775
vn -0.2292 0.9729 -0.0303
vn -0.3229 0.9233 0.2079
vn -0.2237 0.9271 0.3007
vn 0.2237 0.9271 0.3007
vn 0.3229 0.9233 0.2079
vn 0.2292 0.9729 -0.0303
vn 0.0651 0.9585 -0.2775
vn -0.9230 -0.0000 0.3849
vn -0.4904 -0.7399 0.4605
vn -0.5921 -0.0000 -0.8059
vn -0.9702 -0.0000 -0.2423
vn -0.4928 -0.0000 -0.8702
vn 0.9411 -0.0000 0.3381
vn -0.6458 -0.0000 0.7635
vn -0.7191 -0.0000 -0.6949
vn -0.3506 -0.7632 0.5428
vn 0.5614 0.7913 0.2424
vn 0.5407 -0.7280 0.4215
vn 0.5439 -0.0000 0.8391
vn 0.2261 -0.0000 -0.9741
vn 0.7346 -0.0000 -0.6785
vn -0.5439 -0.0000 0.8391
vn -0.0592 -0.0000 -0.9982
vn -0.2261 -0.0000 -0.9741
vn -0.0000 0.8546 0.5193
vn 0.7131 -0.0000 0.7011
vn -0.8539 -0.0000 0.5205
vn 0.9702 -0.0000 -0.2423
vn 0.0365 -0.0000 -0.9993
vn 0.9323 -0.0000 0.3616
vn -0.7030 0.6941 0.1546
vn -0.4279 -0.0000 -0.9038
vn 0.3395 -0.0000 -0.9406
vn 0.5232 -0.0000 0.8522
vn -0.6664 -0.0000 -0.7456
vn 0.4472 0.7384 0.5048
vn -0.4446 -0.7420 0.5018
vn -0.5232 -0.0000 0.8522
vn -0.5407 -0.7280 0.4215
vn 0.1319 -0.0000 -0.9913
vn -0.6494 -0.0000 -0.7605
vn 0.7793 -0.0000 -0.6266
vn -0.7445 -0.0000 0.6676
vn -0.1319 -0.0000 -0.9913
vn 0.6314 0.7076 -0.3172
vn 0.4279 -0.0000 -0.9038
vn 0.7961 -0.0000 -0.6051
vn -0.0000 0.7605 -0.6493
vn -0.3743 0.8375 -0.3981
vn -0.5685 -0.7715 -0.2857
vn 0.0592 -0.0000 -0.9982
vn 0.9230 -0.0000 0.3849
vn 0.6526 -0.7440 0.1435
vn 0.1415 -0.6798 -0.7196
vn 0.5737 -0.0000 -0.8191
vn 0.8396 -0.0000 -0.5433
vn 0.9431 -0.0000 -0.3325
vn 0.6458 -0.0000 0.7635
vn 0.9926 -0.0000 0.1213
vn 0.9552 -0.0000 0.2961
vn 0.3646 0.7406 0.5644
vn 0.9998 -0.0000 0.0201
vn -0.3181 -0.0000 -0.9480
vn 0.6169 -0.7406 0.2664
vn -0.6526 -0.7440 0.1435
vn -0.9130 -0.0000 0.4079
vn -0.5283 0.7425 0.4118
vn 0.4073 -0.0000 -0.9133
vn 0.8768 -0.0000 0.4808
vn -0.9875 -0.0000 -0.1576
vn 0.5685 -0.7715 -0.2857
vn 0.0160 0.7494 -0.6619
vn 0.4904 -0.7399 0.4605
vn 0.3181 -0.0000 -0.9480
vn 0.6494 -0.0000 -0.7605
vn 0.9875 -0.0000 -0.1576
vn -0.5614 0.7913 0.2424
vn 0.2939 0.7580 -0.5823
vn -0.8026 -0.0000 0.5966
vn 0.1543 -0.0000 -0.9880
vn -0.7346 -0.0000 -0.6785
vn -0.9552 -0.0000 0.2961
vn -0.9926 -0.0000 0.1213
vn -0.1415 -0.6798 -0.7196
vn 0.6101 -0.0000 0.7923
vn -0.2939 0.7580 -0.5823
vn 0.9130 -0.0000 0.4079
vn -0.9431 -0.0000 -0.3325
vn -0.8396 -0.0000 -0.5433
vn -0.4510 0.7857 0.4235
vn -0.7131 -0.0000 0.7011
vn 0.6802 -0.0000 0.7331
vn -0.8980 -0.0000 0.4400
vn -0.6314 0.7076 -0.3172
vn 0.5283 0.7425 0.4118
vn -0.7961 -0.0000 -0.6051
vn 0.8980 -0.0000 0.4400
vn 0.7030 0.6941 0.1546
vn 0.4446 -0.7420 0.5018
vn -0.3646 0.7406 0.5644
vn -0.6802 -0.0000 0.7331
vn 0.7445 -0.0000 0.6676
vn -0.4472 0.7384 0.5048
vn 0.6664 -0.0000 -0.7456
vn 0.5821 0.7518 0.3098
vn -0.0365 -0.0000 -0.9993
vn -0.2481 -0.0000 -0.9687
vn 0.8291 -0.0000 0.5591
vn -0.7743 -0.0000 0.6328
vn -0.5821 0.7518 0.3098
vn -0.9998 -0.0000 0.0201
vn -0.9411 -0.0000 0.3381
vn 0.8539 -0.0000 0.5205
vn 0.5921 -0.0000 -0.8059
vn -0.5022 -0.0000 0.8648
vn 0.4510 0.7857 0.4235
vn 0.5731 -0.0000 0.8195
vn 0.3506 -0.7632 0.5428
vn 0.4928 -0.0000 -0.8702
vn 0.9974 -0.0000 -0.0717
vn 0.4317 -0.7764 -0.4592
vn -0.3395 -0.0000 -0.9406
vn -0.7793 -0.0000 -0.6266
vn -0.6101 -0.0000 0.7923
vn -0.5731 -0.0000 0.8195
vn -0.5737 -0.0000 -0.8191
vn -0.4073 -0.0000 -0.9133
vn 0.8026 -0.0000 0.5966
vn -0.5123 -0.0000 -0.8588
vn 0.6034 -0.7299 0.3211
vn -0.6034 -0.7299 0.3211
vn -0.4317 -0.7764 -0.4592
vn 0.3097 -0.7262 -0.6137
vn 0.7191 -0.0000 -0.6949
vn -0.0160 0.7494 -0.6619
vn -0.8291 -0.0000 0.5591
vn -0.6169 -0.7406 0.2664
vn -0.9974 -0.0000 -0.0717
vn -0.8768 -0.0000 0.4808
vn -0.3097 -0.7262 -0.6137
vn 0.3743 0.8375 -0.3981
vn -0.0000 1.0000 -0.0000
s 0
usemtl Diamond
f 203//1 62//1 47//1 63//1
f 156//2 155//2 154//2 153//2
f 152//3 161//3 150//3 15//3
f 124//4 173//4 123//4 125//4
f 95//5 94//5 93//5 92//5
f 101//6 10//6 103//6 102//6
f 50//7 1//7 2//7
f 20//8 3//8 1//8
f 3//9 21//9 4//9
f 4//10 25//10 6//10
f 6//11 11//11 5//11
f 5//12 8//12 7//12
f 13//13 7//13 12//13
f 46//14 2//14 13//14
f 123//15 173//15 121//15 120//15
f 208//16 209//16 207//16 177//16
f 199//17 57//17 58//17 200//17
f 169//18 168//18 17//18 133//18
f 139//19 138//19 140//19 141//19
f 84//20 40//20 86//20 190//20
f 28//21 111//21 110//21 27//21
f 136//22 135//22 9//22 205//22
f 106//23 180//23 109//23 209//23 103//23 105//23
f 12//24 7//24 8//24 38//24
f 90//25 94//25 95//25 184//25 210//25 185//25
f 31//26 100//26 99//26 30//26
f 66//27 65//27 42//27 196//27
f 163//28 157//28 52//28 159//28
f 106//29 107//29 29//29 180//29
f 63//30 47//30 48//30 64//30
f 160//31 166//31 16//31 144//31
f 25//32 10//32 11//32 6//32
f 96//33 181//33 184//33 32//33
f 116//34 23//34 117//34 118//34
f 195//35 41//35 78//35 79//35
f 64//36 48//36 49//36 204//36
f 190//37 86//37 85//37 191//37
f 130//38 128//38 172//38 127//38 126//38 125//38 123//38 120//38 20//38 132//38
f 201//39 59//39 45//39 60//39
f 151//40 152//40 15//40 51//40
f 100//41 31//41 101//41 102//41
f 198//42 53//42 57//42 199//42
f 34//43 97//43 96//43 32//43 11//43 33//43
f 112//44 207//44 209//44 109//44 110//44 111//44
f 107//45 106//45 105//45 104//45
f 179//46 115//46 116//46 177//46 207//46 178//46
f 204//47 49//47 65//47 66//47
f 205//48 9//48 137//48 165//48
f 194//49 76//49 74//49 75//49
f 207//50 22//50 113//50 178//50
f 146//51 160//51 144//51 14//51
f 193//52 75//52 74//52 73//52 12//52 39//52 78//52 41//52 77//52
f 155//53 151//53 51//53 154//53
f 54//54 164//54 163//54 159//54
f 153//55 154//55 51//55 50//55 2//55 46//55 45//55 59//55 58//55 57//55 53//55 55//55 54//55 159//55 52//55 158//55
f 20//56 1//56 50//56 9//56
f 18//57 170//57 136//57 205//57 171//57 167//57 168//57 169//57 134//57
f 149//58 147//58 145//58 148//58
f 191//59 85//59 38//59 192//59
f 211//60 80//60 81//60 189//60 187//60 188//60 84//60 190//60 191//60 192//60
f 66//61 206//61 164//61 56//61 198//61 199//61 200//61 201//61 60//61 202//61 203//61 63//61 64//61 204//61
f 71//62 68//62 70//62 44//62
f 75//63 193//63 194//63
f 77//64 41//64 195//64
f 182//65 97//65 34//65 183//65
f 83//66 187//66 189//66
f 188//67 40//67 84//67
f 31//68 30//68 33//68 11//68 10//68 101//68
f 189//69 81//69 82//69 83//69
f 166//70 142//70 143//70 16//70
f 208//71 211//71 192//71 210//71
f 131//72 167//72 171//72 121//72 173//72 124//72 174//72 127//72 172//72 129//72
f 120//73 121//73 176//73 122//73
f 24//74 113//74 22//74 21//74 23//74 114//74
f 197//75 43//75 67//75 69//75
f 89//76 88//76 186//76 37//76
f 168//77 167//77 132//77 17//77
f 76//78 194//78 193//78 77//78 195//78 79//78 80//78 211//78 72//78
f 62//79 61//79 45//79 46//79 65//79 49//79 48//79 47//79
f 209//80 208//80 210//80 184//80
f 196//81 42//81 43//81 197//81
f 72//82 71//82 44//82 73//82
f 79//83 78//83 39//83 80//83
f 21//84 3//84 20//84 120//84
f 46//85 73//85 44//85 70//85 67//85 43//85 42//85 65//85
f 115//86 179//86 24//86 114//86
f 161//87 149//87 148//87 150//87
f 56//88 55//88 53//88 198//88
f 126//89 127//89 174//89
f 172//90 128//90 129//90
f 206//91 160//91 146//91 147//91 149//91 161//91 152//91 151//91 155//91 156//91 162//91 157//91 163//91 164//91
f 183//92 34//92 33//92 98//92
f 138//93 137//93 9//93 50//93 144//93 16//93 143//93 140//93
f 192//94 38//94 36//94 87//94
f 133//95 134//95 169//95
f 18//96 19//96 170//96
f 25//97 4//97 21//97 22//97
f 112//98 26//98 22//98 207//98
f 97//99 182//99 181//99 96//99
f 122//100 176//100 175//100 119//100
f 134//101 133//101 17//101 132//101 20//101 9//101 135//101 19//101 18//101
f 92//102 93//102 91//102 35//102 8//102 32//102
f 164//103 54//103 55//103 56//103
f 87//104 36//104 37//104 186//104
f 85//105 86//105 40//105 188//105 187//105 83//105 82//105 39//105 12//105 38//105
f 181//106 182//106 183//106 98//106 209//106 184//106
f 29//107 107//107 104//107 10//107 25//107 108//107
f 111//108 28//108 26//108 112//108
f 32//109 184//109 95//109 92//109
f 25//110 22//110 26//110 28//110 27//110 108//110
f 157//111 162//111 158//111 52//111
f 89//112 37//112 36//112 38//112 8//112 35//112
f 14//113 145//113 147//113 146//113
f 202//114 61//114 62//114 203//114
f 185//115 35//115 91//115 90//115
f 178//116 113//116 24//116 179//116
f 122//117 119//117 117//117 23//117 21//117 120//117
f 129//118 128//118 130//118 131//118
f 174//119 124//119 125//119 126//119
f 35//120 185//120 88//120 89//120
f 162//121 156//121 153//121 158//121
f 104//122 105//122 103//122 10//122
f 8//123 5//123 11//123 32//123
f 30//124 99//124 98//124 33//124
f 102//125 103//125 209//125 98//125 99//125 100//125
f 68//126 69//126 67//126 70//126
f 81//127 80//127 39//127 82//127
f 208//128 206//128 72//128 211//128
f 60//129 45//129 61//129 202//129
f 170//130 19//130 135//130 136//130
f 27//131 110//131 109//131 108//131
f 180//132 29//132 108//132 109//132
f 165//133 137//133 138//133 139//133
f 142//134 141//134 140//134 143//134
f 90//135 91//135 93//135 94//135
f 200//136 58//136 59//136 201//136
f 87//137 186//137 88//137 185//137 210//137 192//137
f 118//138 175//138 176//138 121//138 177//138 116//138
f 206//139 208//139 171//139 205//139
f 71//140 72//140 206//140 66//140 196//140 197//140 69//140 68//140
f 76//141 72//141 73//141 74//141
f 145//142 14//142 144//142 50//142 51//142 15//142 150//142 148//142
f 23//143 116//143 115//143 114//143
f 171//144 208//144 177//144 121//144
f 131//145 130//145 132//145 167//145
f 118//146 117//146 119//146 175//146
f 160//147 206//147 205//147 165//147 139//147 141//147 142//147 166//147
f 46//148 13//148 12//148 73//148
f 6//149 5//149 7//149 13//149 2//149 1//149 3//149 4//149
